<svg width="25" height="24" viewBox="0 0 25 24" fill="none" xmlns="http://www.w3.org/2000/svg">
<path fill-rule="evenodd" clip-rule="evenodd" d="M2.79968 2.83923H6.30233H7.12213L7.28291 3.61096L7.74024 5.80618H21.3431H22.5235L22.3295 6.924L21.2993 12.8579L21.16 13.66H20.3129H9.37647L9.80062 15.696H20.3129V17.616H8.98081H8.16101L8.00023 16.8443L5.93985 6.95445L6.92044 6.76618L5.93985 6.95445L5.48252 4.75923H2.79968V2.83923ZM8.14024 7.72618L8.97647 11.74H19.4658L20.1626 7.72618H8.14024ZM11.6758 20.0054C11.6758 20.8889 10.9316 21.6034 10.0112 21.6034C9.09075 21.6034 8.34656 20.8889 8.34656 20.0054C8.34656 19.1218 9.09075 18.4261 10.0112 18.4261C10.9316 18.4261 11.6758 19.1218 11.6758 20.0054ZM18.2534 21.6034C19.1738 21.6034 19.918 20.8889 19.918 20.0054C19.918 19.1218 19.1738 18.4261 18.2534 18.4261C17.3329 18.4261 16.5887 19.1218 16.5887 20.0054C16.5887 20.8889 17.3329 21.6034 18.2534 21.6034Z" fill="white"/>
</svg>
