<svg xmlns="http://www.w3.org/2000/svg">

  <symbol viewBox="0 0 28 22" id="favorites-img">
    <path fill-rule="evenodd" clip-rule="evenodd" d="M2.78502 2.57269C5.17872 0.27474 9.04661 0.27474 11.4403 2.57269L14.0001 5.03017L16.56 2.57269C18.9537 0.27474 22.8216 0.27474 25.2154 2.57269C27.609 4.87064 27.609 8.5838 25.2154 10.8818L14.0001 21.6483L2.78502 10.8818C0.391321 8.5838 0.391321 4.87064 2.78502 2.57269ZM9.67253 4.26974C8.25515 2.90905 5.97018 2.90905 4.55278 4.26974C3.1354 5.63044 3.1354 7.82401 4.55278 9.18476L14.0001 18.2542L23.4476 9.18476C24.865 7.82401 24.865 5.63044 23.4476 4.26974C22.0302 2.90905 19.7452 2.90905 18.3279 4.26974L14.0001 8.42432L9.67253 4.26974Z"/>
  </symbol>

  <symbol viewBox="0 0 51 50" id="basket-img">
    <path fill-rule="evenodd" clip-rule="evenodd" d="M5.72095 5.91504H13.0181H14.7261L15.061 7.5228L16.0138 12.0962H44.3531H46.8122L46.4081 14.425L44.2618 26.7872L43.9716 28.4584H42.2068H19.4226L20.3062 32.7H42.2068V36.7H18.5983H16.8904L16.5554 35.0922L12.263 14.4884L14.3059 14.0962L12.263 14.4884L11.3102 9.91504H5.72095V5.91504ZM16.8471 16.0962L18.5893 24.4584H40.442L41.8937 16.0962H16.8471ZM24.2129 41.6778C24.2129 43.5186 22.6624 45.007 20.7449 45.007C18.8273 45.007 17.2769 43.5186 17.2769 41.6778C17.2769 39.837 18.8273 38.3876 20.7449 38.3876C22.6624 38.3876 24.2129 39.837 24.2129 41.6778ZM37.9162 45.007C39.8337 45.007 41.3841 43.5186 41.3841 41.6778C41.3841 39.837 39.8337 38.3876 37.9162 38.3876C35.9985 38.3876 34.4481 39.837 34.4481 41.6778C34.4481 43.5186 35.9985 45.007 37.9162 45.007Z"/>
  </symbol>

</svg>
