<svg width="150" height="30" viewBox="0 0 150 30" fill="none" xmlns="http://www.w3.org/2000/svg">
<path d="M10.3477 10.5575L2.27749 11.1802C1.40827 11.2473 1.03513 12.3169 1.67403 12.9101L7.60692 18.4182C7.87022 18.6626 7.98215 19.0295 7.90013 19.3793L5.97324 27.5972C5.76815 28.4718 6.73084 29.1523 7.48692 28.6671L14.3825 24.242C14.7093 24.0323 15.1278 24.0307 15.4562 24.2378L22.4844 28.6716C23.2467 29.1525 24.2062 28.4587 23.9883 27.5841L21.9476 19.3931C21.8587 19.0361 21.9729 18.6592 22.245 18.4117L28.2897 12.912C28.9377 12.3224 28.5682 11.2438 27.6948 11.1754L19.7966 10.5567C19.4189 10.5272 19.0904 10.2867 18.948 9.93566L15.882 2.37656C15.5395 1.53216 14.3383 1.54843 14.0188 2.40179L11.2073 9.91114C11.0708 10.2755 10.7355 10.5276 10.3477 10.5575Z" fill="#FFD017"/>
<path d="M40.3477 10.5575L32.2775 11.1802C31.4083 11.2473 31.0351 12.3169 31.674 12.9101L37.6069 18.4182C37.8702 18.6626 37.9821 19.0295 37.9001 19.3793L35.9732 27.5972C35.7682 28.4718 36.7308 29.1523 37.4869 28.6671L44.3825 24.242C44.7093 24.0323 45.1278 24.0307 45.4562 24.2378L52.4844 28.6716C53.2467 29.1525 54.2062 28.4587 53.9883 27.5841L51.9476 19.3931C51.8587 19.0361 51.9729 18.6592 52.245 18.4117L58.2897 12.912C58.9377 12.3224 58.5682 11.2438 57.6948 11.1754L49.7966 10.5567C49.4189 10.5272 49.0904 10.2867 48.948 9.93566L45.882 2.37656C45.5395 1.53216 44.3383 1.54843 44.0188 2.40179L41.2073 9.91114C41.0708 10.2755 40.7355 10.5276 40.3477 10.5575Z" fill="#FFD017"/>
<path d="M70.3477 10.5575L62.2775 11.1802C61.4083 11.2473 61.0351 12.3169 61.674 12.9101L67.6069 18.4182C67.8702 18.6626 67.9821 19.0295 67.9001 19.3793L65.9732 27.5972C65.7682 28.4718 66.7308 29.1523 67.4869 28.6671L74.3825 24.242C74.7093 24.0323 75.1278 24.0307 75.4562 24.2378L82.4844 28.6716C83.2467 29.1525 84.2062 28.4587 83.9883 27.5841L81.9476 19.3931C81.8587 19.0361 81.9729 18.6592 82.245 18.4117L88.2897 12.912C88.9377 12.3224 88.5682 11.2438 87.6948 11.1754L79.7966 10.5567C79.4189 10.5272 79.0904 10.2867 78.948 9.93566L75.882 2.37656C75.5395 1.53216 74.3383 1.54843 74.0188 2.40179L71.2073 9.91114C71.0708 10.2755 70.7355 10.5276 70.3477 10.5575Z" fill="#FFD017"/>
<path d="M100.348 10.5575L92.2775 11.1802C91.4083 11.2473 91.0351 12.3169 91.674 12.9101L97.6069 18.4182C97.8702 18.6626 97.9821 19.0295 97.9001 19.3793L95.9732 27.5972C95.7682 28.4718 96.7308 29.1523 97.4869 28.6671L104.383 24.242C104.709 24.0323 105.128 24.0307 105.456 24.2378L112.484 28.6716C113.247 29.1525 114.206 28.4587 113.988 27.5841L111.948 19.3931C111.859 19.0361 111.973 18.6592 112.245 18.4117L118.29 12.912C118.938 12.3224 118.568 11.2438 117.695 11.1754L109.797 10.5567C109.419 10.5272 109.09 10.2867 108.948 9.93566L105.882 2.37656C105.539 1.53216 104.338 1.54843 104.019 2.40179L101.207 9.91114C101.071 10.2755 100.736 10.5276 100.348 10.5575Z" fill="#FFD017"/>
<path d="M130.348 10.5575L122.277 11.1802C121.408 11.2473 121.035 12.3169 121.674 12.9101L127.607 18.4182C127.87 18.6626 127.982 19.0295 127.9 19.3793L125.973 27.5972C125.768 28.4718 126.731 29.1523 127.487 28.6671L134.383 24.242C134.709 24.0323 135.128 24.0307 135.456 24.2378L142.484 28.6716C143.247 29.1525 144.206 28.4587 143.988 27.5841L141.948 19.3931C141.859 19.0361 141.973 18.6592 142.245 18.4117L148.29 12.912C148.938 12.3224 148.568 11.2438 147.695 11.1754L139.797 10.5567C139.419 10.5272 139.09 10.2867 138.948 9.93566L135.882 2.37656C135.539 1.53216 134.338 1.54843 134.019 2.40179L131.207 9.91114C131.071 10.2755 130.736 10.5276 130.348 10.5575Z" fill="#888888"/>
</svg>
